<svg width="32" height="32" viewBox="0 0 32 32" fill="none" xmlns="http://www.w3.org/2000/svg">
<g clip-path="url(#clip0_3_2)">
<g clip-path="url(#paint0_diamond_3_2_clip_path)" data-figma-skip-parse="true"><g transform="matrix(-0.0267414 0.00916667 -0.0275 -0.0169989 25.431 10.8333)"><rect x="0" y="0" width="1199.84" height="540.883" fill="url(#paint0_diamond_3_2)" opacity="1" shape-rendering="crispEdges"/><rect x="0" y="0" width="1199.84" height="540.883" transform="scale(1 -1)" fill="url(#paint0_diamond_3_2)" opacity="1" shape-rendering="crispEdges"/><rect x="0" y="0" width="1199.84" height="540.883" transform="scale(-1 1)" fill="url(#paint0_diamond_3_2)" opacity="1" shape-rendering="crispEdges"/><rect x="0" y="0" width="1199.84" height="540.883" transform="scale(-1)" fill="url(#paint0_diamond_3_2)" opacity="1" shape-rendering="crispEdges"/></g></g><path d="M7.30195 18V16.7H9.14195V12.07L7.28195 13.45V11.9L8.99195 10.7H10.642V16.7H12.102V18H7.30195Z" data-figma-gradient-fill="{&#34;type&#34;:&#34;GRADIENT_DIAMOND&#34;,&#34;stops&#34;:[{&#34;color&#34;:{&#34;r&#34;:1.0,&#34;g&#34;:1.0,&#34;b&#34;:1.0,&#34;a&#34;:1.0},&#34;position&#34;:0.0},{&#34;color&#34;:{&#34;r&#34;:0.97697967290878296,&#34;g&#34;:0.97090059518814087,&#34;b&#34;:0.96112132072448730,&#34;a&#34;:1.0},&#34;position&#34;:1.0}],&#34;stopsVar&#34;:[{&#34;color&#34;:{&#34;r&#34;:1.0,&#34;g&#34;:1.0,&#34;b&#34;:1.0,&#34;a&#34;:1.0},&#34;position&#34;:0.0},{&#34;color&#34;:{&#34;r&#34;:0.97697967290878296,&#34;g&#34;:0.97090059518814087,&#34;b&#34;:0.96112132072448730,&#34;a&#34;:1.0},&#34;position&#34;:1.0}],&#34;transform&#34;:{&#34;m00&#34;:-53.482757568359375,&#34;m01&#34;:-54.999996185302734,&#34;m02&#34;:79.672416687011719,&#34;m10&#34;:18.333332061767578,&#34;m11&#34;:-33.997734069824219,&#34;m12&#34;:18.665533065795898},&#34;opacity&#34;:1.0,&#34;blendMode&#34;:&#34;NORMAL&#34;,&#34;visible&#34;:true}"/>
<g clip-path="url(#paint1_diamond_3_2_clip_path)" data-figma-skip-parse="true"><g transform="matrix(-0.0267414 0.0183333 -0.0275 -0.0339977 31.431 12.6667)"><rect x="0" y="0" width="1180.38" height="521.962" fill="url(#paint1_diamond_3_2)" opacity="1" shape-rendering="crispEdges"/><rect x="0" y="0" width="1180.38" height="521.962" transform="scale(1 -1)" fill="url(#paint1_diamond_3_2)" opacity="1" shape-rendering="crispEdges"/><rect x="0" y="0" width="1180.38" height="521.962" transform="scale(-1 1)" fill="url(#paint1_diamond_3_2)" opacity="1" shape-rendering="crispEdges"/><rect x="0" y="0" width="1180.38" height="521.962" transform="scale(-1)" fill="url(#paint1_diamond_3_2)" opacity="1" shape-rendering="crispEdges"/></g></g><path d="M15.502 18.1C14.9953 18.1 14.5486 17.9967 14.162 17.79C13.782 17.5767 13.4853 17.28 13.272 16.9C13.0586 16.52 12.952 16.08 12.952 15.58C12.952 15.2467 13.0153 14.8833 13.142 14.49C13.2686 14.09 13.4353 13.72 13.642 13.38L15.282 10.7H16.952L14.732 14.16L14.802 14.2C14.9486 13.9867 15.1353 13.8233 15.362 13.71C15.5953 13.5967 15.8553 13.54 16.142 13.54C16.522 13.54 16.8553 13.6333 17.142 13.82C17.4286 14 17.652 14.2567 17.812 14.59C17.972 14.9167 18.052 15.3 18.052 15.74C18.052 16.2133 17.9453 16.6267 17.732 16.98C17.5186 17.3333 17.222 17.61 16.842 17.81C16.462 18.0033 16.0153 18.1 15.502 18.1ZM15.502 16.85C15.8286 16.85 16.092 16.75 16.292 16.55C16.492 16.35 16.592 16.0867 16.592 15.76C16.592 15.4267 16.492 15.16 16.292 14.96C16.092 14.7533 15.8286 14.65 15.502 14.65C15.1753 14.65 14.912 14.7533 14.712 14.96C14.512 15.16 14.412 15.4267 14.412 15.76C14.412 16.0867 14.512 16.35 14.712 16.55C14.912 16.75 15.1753 16.85 15.502 16.85Z" data-figma-gradient-fill="{&#34;type&#34;:&#34;GRADIENT_DIAMOND&#34;,&#34;stops&#34;:[{&#34;color&#34;:{&#34;r&#34;:1.0,&#34;g&#34;:1.0,&#34;b&#34;:1.0,&#34;a&#34;:1.0},&#34;position&#34;:0.0},{&#34;color&#34;:{&#34;r&#34;:0.97697967290878296,&#34;g&#34;:0.97090059518814087,&#34;b&#34;:0.96112132072448730,&#34;a&#34;:1.0},&#34;position&#34;:1.0}],&#34;stopsVar&#34;:[{&#34;color&#34;:{&#34;r&#34;:1.0,&#34;g&#34;:1.0,&#34;b&#34;:1.0,&#34;a&#34;:1.0},&#34;position&#34;:0.0},{&#34;color&#34;:{&#34;r&#34;:0.97697967290878296,&#34;g&#34;:0.97090059518814087,&#34;b&#34;:0.96112132072448730,&#34;a&#34;:1.0},&#34;position&#34;:1.0}],&#34;transform&#34;:{&#34;m00&#34;:-53.482757568359375,&#34;m01&#34;:-54.999996185302734,&#34;m02&#34;:85.672416687011719,&#34;m10&#34;:36.666664123535156,&#34;m11&#34;:-67.995468139648438,&#34;m12&#34;:28.331066131591797},&#34;opacity&#34;:1.0,&#34;blendMode&#34;:&#34;NORMAL&#34;,&#34;visible&#34;:true}"/>
<g clip-path="url(#paint2_diamond_3_2_clip_path)" data-figma-skip-parse="true"><g transform="matrix(-0.0267414 0.0883333 -0.0275 -0.163807 37.431 -43.3333)"><rect x="0" y="0" width="1164.96" height="506.968" fill="url(#paint2_diamond_3_2)" opacity="1" shape-rendering="crispEdges"/><rect x="0" y="0" width="1164.96" height="506.968" transform="scale(1 -1)" fill="url(#paint2_diamond_3_2)" opacity="1" shape-rendering="crispEdges"/><rect x="0" y="0" width="1164.96" height="506.968" transform="scale(-1 1)" fill="url(#paint2_diamond_3_2)" opacity="1" shape-rendering="crispEdges"/><rect x="0" y="0" width="1164.96" height="506.968" transform="scale(-1)" fill="url(#paint2_diamond_3_2)" opacity="1" shape-rendering="crispEdges"/></g></g><path d="M21.512 -51.9C21.0186 -51.9 20.592 -51.99 20.232 -52.17C19.872 -52.3567 19.592 -52.6133 19.392 -52.94C19.1986 -53.2733 19.102 -53.66 19.102 -54.1V-57.2C19.102 -57.64 19.1986 -58.0233 19.392 -58.35C19.592 -58.6833 19.872 -58.94 20.232 -59.12C20.592 -59.3067 21.0153 -59.4 21.502 -59.4C21.9953 -59.4 22.4186 -59.3067 22.772 -59.12C23.132 -58.94 23.4086 -58.6833 23.602 -58.35C23.802 -58.0233 23.902 -57.64 23.902 -57.2V-54.1C23.902 -53.66 23.802 -53.2733 23.602 -52.94C23.4086 -52.6133 23.132 -52.3567 22.772 -52.17C22.4186 -51.99 21.9986 -51.9 21.512 -51.9ZM21.502 -53.2C21.8153 -53.2 22.0586 -53.28 22.232 -53.44C22.412 -53.6 22.502 -53.82 22.502 -54.1V-57.2C22.502 -57.48 22.412 -57.7 22.232 -57.86C22.0586 -58.02 21.8153 -58.1 21.502 -58.1C21.1886 -58.1 20.942 -58.02 20.762 -57.86C20.5886 -57.7 20.502 -57.48 20.502 -57.2V-54.1C20.502 -53.82 20.592 -53.6 20.772 -53.44C20.952 -53.28 21.1953 -53.2 21.502 -53.2ZM21.502 -54.96C21.2953 -54.96 21.1253 -55.0267 20.992 -55.16C20.8653 -55.2933 20.802 -55.4667 20.802 -55.68C20.802 -55.8933 20.8653 -56.0633 20.992 -56.19C21.1253 -56.3167 21.2953 -56.38 21.502 -56.38C21.7153 -56.38 21.8853 -56.3167 22.012 -56.19C22.1386 -56.0633 22.202 -55.8933 22.202 -55.68C22.202 -55.4667 22.1386 -55.2933 22.012 -55.16C21.8853 -55.0267 21.7153 -54.96 21.502 -54.96ZM19.302 -41V-42.3H21.142V-46.93L19.282 -45.55V-47.1L20.992 -48.3H22.642V-42.3H24.102V-41H19.302ZM19.202 -30V-31.41L21.522 -33.65C21.7953 -33.9167 21.9986 -34.1633 22.132 -34.39C22.272 -34.6167 22.342 -34.8633 22.342 -35.13C22.342 -35.4233 22.262 -35.65 22.102 -35.81C21.9486 -35.97 21.7353 -36.05 21.462 -36.05C21.162 -36.05 20.9253 -35.96 20.752 -35.78C20.5853 -35.6067 20.502 -35.3633 20.502 -35.05H19.002C19.002 -35.53 19.102 -35.9433 19.302 -36.29C19.5086 -36.6433 19.7986 -36.9167 20.172 -37.11C20.5453 -37.3033 20.9853 -37.4 21.492 -37.4C21.9653 -37.4 22.3753 -37.31 22.722 -37.13C23.0753 -36.9567 23.3486 -36.7133 23.542 -36.4C23.742 -36.0867 23.842 -35.7167 23.842 -35.29C23.842 -34.8167 23.7253 -34.3633 23.492 -33.93C23.2586 -33.4967 22.8853 -33.0433 22.372 -32.57L21.052 -31.35H23.922V-30H19.202ZM21.462 -18.9C20.962 -18.9 20.5286 -18.9833 20.162 -19.15C19.802 -19.3233 19.522 -19.5667 19.322 -19.88C19.122 -20.2 19.022 -20.5733 19.022 -21H20.522C20.522 -20.7333 20.602 -20.5233 20.762 -20.37C20.9286 -20.2233 21.162 -20.15 21.462 -20.15C21.7686 -20.15 22.002 -20.2233 22.162 -20.37C22.322 -20.5167 22.402 -20.7267 22.402 -21V-21.6C22.402 -21.8733 22.3186 -22.0833 22.152 -22.23C21.992 -22.3833 21.762 -22.46 21.462 -22.46H20.602V-23.75L22.072 -25.05H19.372V-26.3H23.602V-25.01L21.462 -23.12V-23.73C22.2153 -23.73 22.8086 -23.54 23.242 -23.16C23.682 -22.78 23.902 -22.2633 23.902 -21.61V-21C23.902 -20.5733 23.802 -20.2 23.602 -19.88C23.4086 -19.5667 23.1286 -19.3233 22.762 -19.15C22.3953 -18.9833 21.962 -18.9 21.462 -18.9ZM22.252 -8V-9.34H19.052V-11.43L21.792 -15.3H23.492L20.452 -11.01V-10.64H22.252V-12.2H23.752V-8H22.252ZM21.492 3.1C20.7653 3.1 20.1886 2.92 19.762 2.56C19.3353 2.2 19.1153 1.71333 19.102 1.1H20.602C20.6153 1.32 20.6986 1.49333 20.852 1.62C21.0053 1.74 21.2186 1.8 21.492 1.8C21.7853 1.8 22.0086 1.72667 22.162 1.58C22.322 1.42667 22.402 1.21667 22.402 0.95V0.24C22.402 -0.0333334 22.3253 -0.24 22.172 -0.38C22.0186 -0.526667 21.792 -0.6 21.492 -0.6C21.312 -0.6 21.1553 -0.573334 21.022 -0.52C20.8953 -0.473334 20.7953 -0.4 20.722 -0.3H19.272L19.322 -4.3H23.632V-2.95H20.732L20.712 -1.05H21.022L20.702 -0.8C20.702 -1.10667 20.8186 -1.34667 21.052 -1.52C21.292 -1.7 21.6153 -1.79 22.022 -1.79C22.6153 -1.79 23.0753 -1.61 23.402 -1.25C23.7353 -0.896667 23.902 -0.4 23.902 0.24V0.95C23.902 1.61667 23.6886 2.14333 23.262 2.53C22.8353 2.91 22.2453 3.1 21.492 3.1ZM21.502 14.1C20.9953 14.1 20.5486 13.9967 20.162 13.79C19.782 13.5767 19.4853 13.28 19.272 12.9C19.0586 12.52 18.952 12.08 18.952 11.58C18.952 11.2467 19.0153 10.8833 19.142 10.49C19.2686 10.09 19.4353 9.72 19.642 9.38L21.282 6.7H22.952L20.732 10.16L20.802 10.2C20.9486 9.98667 21.1353 9.82333 21.362 9.71C21.5953 9.59667 21.8553 9.54 22.142 9.54C22.522 9.54 22.8553 9.63333 23.142 9.82C23.4286 10 23.652 10.2567 23.812 10.59C23.972 10.9167 24.052 11.3 24.052 11.74C24.052 12.2133 23.9453 12.6267 23.732 12.98C23.5186 13.3333 23.222 13.61 22.842 13.81C22.462 14.0033 22.0153 14.1 21.502 14.1ZM21.502 12.85C21.8286 12.85 22.092 12.75 22.292 12.55C22.492 12.35 22.592 12.0867 22.592 11.76C22.592 11.4267 22.492 11.16 22.292 10.96C22.092 10.7533 21.8286 10.65 21.502 10.65C21.1753 10.65 20.912 10.7533 20.712 10.96C20.512 11.16 20.412 11.4267 20.412 11.76C20.412 12.0867 20.512 12.35 20.712 12.55C20.912 12.75 21.1753 12.85 21.502 12.85ZM19.842 25L22.492 19.1H20.452V20.15H18.952V17.7H24.002V19.1L21.442 25H19.842ZM21.502 36.1C20.9953 36.1 20.5553 36.0167 20.182 35.85C19.8153 35.6767 19.5286 35.44 19.322 35.14C19.122 34.8333 19.022 34.48 19.022 34.08C19.022 33.6267 19.1486 33.2433 19.402 32.93C19.662 32.6167 20.0253 32.36 20.492 32.16L21.712 31.63C21.9186 31.5367 22.082 31.4067 22.202 31.24C22.322 31.0667 22.382 30.8733 22.382 30.66C22.382 30.42 22.302 30.2267 22.142 30.08C21.9886 29.9333 21.7753 29.86 21.502 29.86C21.2286 29.86 21.0086 29.9333 20.842 30.08C20.682 30.2267 20.602 30.42 20.602 30.66C20.602 30.8667 20.6653 31.0567 20.792 31.23C20.9186 31.3967 21.0853 31.5267 21.292 31.62L22.512 32.16C23.0253 32.3867 23.3986 32.66 23.632 32.98C23.8653 33.2933 23.982 33.66 23.982 34.08C23.982 34.7 23.7586 35.1933 23.312 35.56C22.8653 35.92 22.262 36.1 21.502 36.1ZM21.502 34.84C21.802 34.84 22.042 34.7567 22.222 34.59C22.4086 34.4233 22.502 34.2133 22.502 33.96C22.502 33.76 22.4353 33.5633 22.302 33.37C22.1686 33.1767 21.9953 33.0333 21.782 32.94L20.422 32.33C20.022 32.15 19.7053 31.9133 19.472 31.62C19.2386 31.32 19.122 30.9667 19.122 30.56C19.122 30.1933 19.2186 29.8633 19.412 29.57C19.6053 29.27 19.8786 29.0333 20.232 28.86C20.592 28.6867 21.0153 28.6 21.502 28.6C21.9886 28.6 22.4053 28.6867 22.752 28.86C23.1053 29.0333 23.3786 29.27 23.572 29.57C23.7653 29.8633 23.862 30.1933 23.862 30.56C23.862 30.9867 23.7486 31.3467 23.522 31.64C23.2953 31.9267 22.9853 32.1567 22.592 32.33L21.222 32.94C21.0086 33.0333 20.8353 33.1767 20.702 33.37C20.5686 33.5567 20.502 33.75 20.502 33.95C20.502 34.21 20.592 34.4233 20.772 34.59C20.9586 34.7567 21.202 34.84 21.502 34.84ZM20.052 47L22.272 43.54L22.202 43.5C22.0553 43.7133 21.8653 43.8767 21.632 43.99C21.4053 44.1033 21.1486 44.16 20.862 44.16C20.482 44.16 20.1486 44.07 19.862 43.89C19.5753 43.7033 19.352 43.4467 19.192 43.12C19.032 42.7867 18.952 42.4 18.952 41.96C18.952 41.4867 19.0586 41.0733 19.272 40.72C19.4853 40.3667 19.782 40.0933 20.162 39.9C20.5486 39.7 20.9953 39.6 21.502 39.6C22.0153 39.6 22.462 39.7067 22.842 39.92C23.222 40.1267 23.5186 40.42 23.732 40.8C23.9453 41.1733 24.052 41.6133 24.052 42.12C24.052 42.4467 23.9886 42.81 23.862 43.21C23.742 43.61 23.5753 43.98 23.362 44.32L21.722 47H20.052ZM21.502 43.05C21.8286 43.05 22.092 42.95 22.292 42.75C22.492 42.5433 22.592 42.2733 22.592 41.94C22.592 41.6133 22.492 41.35 22.292 41.15C22.092 40.95 21.8286 40.85 21.502 40.85C21.1753 40.85 20.912 40.95 20.712 41.15C20.512 41.35 20.412 41.6133 20.412 41.94C20.412 42.2733 20.512 42.5433 20.712 42.75C20.912 42.95 21.1753 43.05 21.502 43.05Z" data-figma-gradient-fill="{&#34;type&#34;:&#34;GRADIENT_DIAMOND&#34;,&#34;stops&#34;:[{&#34;color&#34;:{&#34;r&#34;:1.0,&#34;g&#34;:1.0,&#34;b&#34;:1.0,&#34;a&#34;:1.0},&#34;position&#34;:0.0},{&#34;color&#34;:{&#34;r&#34;:0.97697967290878296,&#34;g&#34;:0.97090059518814087,&#34;b&#34;:0.96112132072448730,&#34;a&#34;:1.0},&#34;position&#34;:1.0}],&#34;stopsVar&#34;:[{&#34;color&#34;:{&#34;r&#34;:1.0,&#34;g&#34;:1.0,&#34;b&#34;:1.0,&#34;a&#34;:1.0},&#34;position&#34;:0.0},{&#34;color&#34;:{&#34;r&#34;:0.97697967290878296,&#34;g&#34;:0.97090059518814087,&#34;b&#34;:0.96112132072448730,&#34;a&#34;:1.0},&#34;position&#34;:1.0}],&#34;transform&#34;:{&#34;m00&#34;:-53.482757568359375,&#34;m01&#34;:-54.999996185302734,&#34;m02&#34;:91.672416687011719,&#34;m10&#34;:176.66665649414062,&#34;m11&#34;:-327.6145019531250,&#34;m12&#34;:32.140594482421875},&#34;opacity&#34;:1.0,&#34;blendMode&#34;:&#34;NORMAL&#34;,&#34;visible&#34;:true}"/>
</g>
<defs>
<clipPath id="paint0_diamond_3_2_clip_path"><path d="M7.30195 18V16.7H9.14195V12.07L7.28195 13.45V11.9L8.99195 10.7H10.642V16.7H12.102V18H7.30195Z"/></clipPath><clipPath id="paint1_diamond_3_2_clip_path"><path d="M15.502 18.1C14.9953 18.1 14.5486 17.9967 14.162 17.79C13.782 17.5767 13.4853 17.28 13.272 16.9C13.0586 16.52 12.952 16.08 12.952 15.58C12.952 15.2467 13.0153 14.8833 13.142 14.49C13.2686 14.09 13.4353 13.72 13.642 13.38L15.282 10.7H16.952L14.732 14.16L14.802 14.2C14.9486 13.9867 15.1353 13.8233 15.362 13.71C15.5953 13.5967 15.8553 13.54 16.142 13.54C16.522 13.54 16.8553 13.6333 17.142 13.82C17.4286 14 17.652 14.2567 17.812 14.59C17.972 14.9167 18.052 15.3 18.052 15.74C18.052 16.2133 17.9453 16.6267 17.732 16.98C17.5186 17.3333 17.222 17.61 16.842 17.81C16.462 18.0033 16.0153 18.1 15.502 18.1ZM15.502 16.85C15.8286 16.85 16.092 16.75 16.292 16.55C16.492 16.35 16.592 16.0867 16.592 15.76C16.592 15.4267 16.492 15.16 16.292 14.96C16.092 14.7533 15.8286 14.65 15.502 14.65C15.1753 14.65 14.912 14.7533 14.712 14.96C14.512 15.16 14.412 15.4267 14.412 15.76C14.412 16.0867 14.512 16.35 14.712 16.55C14.912 16.75 15.1753 16.85 15.502 16.85Z"/></clipPath><clipPath id="paint2_diamond_3_2_clip_path"><path d="M21.512 -51.9C21.0186 -51.9 20.592 -51.99 20.232 -52.17C19.872 -52.3567 19.592 -52.6133 19.392 -52.94C19.1986 -53.2733 19.102 -53.66 19.102 -54.1V-57.2C19.102 -57.64 19.1986 -58.0233 19.392 -58.35C19.592 -58.6833 19.872 -58.94 20.232 -59.12C20.592 -59.3067 21.0153 -59.4 21.502 -59.4C21.9953 -59.4 22.4186 -59.3067 22.772 -59.12C23.132 -58.94 23.4086 -58.6833 23.602 -58.35C23.802 -58.0233 23.902 -57.64 23.902 -57.2V-54.1C23.902 -53.66 23.802 -53.2733 23.602 -52.94C23.4086 -52.6133 23.132 -52.3567 22.772 -52.17C22.4186 -51.99 21.9986 -51.9 21.512 -51.9ZM21.502 -53.2C21.8153 -53.2 22.0586 -53.28 22.232 -53.44C22.412 -53.6 22.502 -53.82 22.502 -54.1V-57.2C22.502 -57.48 22.412 -57.7 22.232 -57.86C22.0586 -58.02 21.8153 -58.1 21.502 -58.1C21.1886 -58.1 20.942 -58.02 20.762 -57.86C20.5886 -57.7 20.502 -57.48 20.502 -57.2V-54.1C20.502 -53.82 20.592 -53.6 20.772 -53.44C20.952 -53.28 21.1953 -53.2 21.502 -53.2ZM21.502 -54.96C21.2953 -54.96 21.1253 -55.0267 20.992 -55.16C20.8653 -55.2933 20.802 -55.4667 20.802 -55.68C20.802 -55.8933 20.8653 -56.0633 20.992 -56.19C21.1253 -56.3167 21.2953 -56.38 21.502 -56.38C21.7153 -56.38 21.8853 -56.3167 22.012 -56.19C22.1386 -56.0633 22.202 -55.8933 22.202 -55.68C22.202 -55.4667 22.1386 -55.2933 22.012 -55.16C21.8853 -55.0267 21.7153 -54.96 21.502 -54.96ZM19.302 -41V-42.3H21.142V-46.93L19.282 -45.55V-47.1L20.992 -48.3H22.642V-42.3H24.102V-41H19.302ZM19.202 -30V-31.41L21.522 -33.65C21.7953 -33.9167 21.9986 -34.1633 22.132 -34.39C22.272 -34.6167 22.342 -34.8633 22.342 -35.13C22.342 -35.4233 22.262 -35.65 22.102 -35.81C21.9486 -35.97 21.7353 -36.05 21.462 -36.05C21.162 -36.05 20.9253 -35.96 20.752 -35.78C20.5853 -35.6067 20.502 -35.3633 20.502 -35.05H19.002C19.002 -35.53 19.102 -35.9433 19.302 -36.29C19.5086 -36.6433 19.7986 -36.9167 20.172 -37.11C20.5453 -37.3033 20.9853 -37.4 21.492 -37.4C21.9653 -37.4 22.3753 -37.31 22.722 -37.13C23.0753 -36.9567 23.3486 -36.7133 23.542 -36.4C23.742 -36.0867 23.842 -35.7167 23.842 -35.29C23.842 -34.8167 23.7253 -34.3633 23.492 -33.93C23.2586 -33.4967 22.8853 -33.0433 22.372 -32.57L21.052 -31.35H23.922V-30H19.202ZM21.462 -18.9C20.962 -18.9 20.5286 -18.9833 20.162 -19.15C19.802 -19.3233 19.522 -19.5667 19.322 -19.88C19.122 -20.2 19.022 -20.5733 19.022 -21H20.522C20.522 -20.7333 20.602 -20.5233 20.762 -20.37C20.9286 -20.2233 21.162 -20.15 21.462 -20.15C21.7686 -20.15 22.002 -20.2233 22.162 -20.37C22.322 -20.5167 22.402 -20.7267 22.402 -21V-21.6C22.402 -21.8733 22.3186 -22.0833 22.152 -22.23C21.992 -22.3833 21.762 -22.46 21.462 -22.46H20.602V-23.75L22.072 -25.05H19.372V-26.3H23.602V-25.01L21.462 -23.12V-23.73C22.2153 -23.73 22.8086 -23.54 23.242 -23.16C23.682 -22.78 23.902 -22.2633 23.902 -21.61V-21C23.902 -20.5733 23.802 -20.2 23.602 -19.88C23.4086 -19.5667 23.1286 -19.3233 22.762 -19.15C22.3953 -18.9833 21.962 -18.9 21.462 -18.9ZM22.252 -8V-9.34H19.052V-11.43L21.792 -15.3H23.492L20.452 -11.01V-10.64H22.252V-12.2H23.752V-8H22.252ZM21.492 3.1C20.7653 3.1 20.1886 2.92 19.762 2.56C19.3353 2.2 19.1153 1.71333 19.102 1.1H20.602C20.6153 1.32 20.6986 1.49333 20.852 1.62C21.0053 1.74 21.2186 1.8 21.492 1.8C21.7853 1.8 22.0086 1.72667 22.162 1.58C22.322 1.42667 22.402 1.21667 22.402 0.95V0.24C22.402 -0.0333334 22.3253 -0.24 22.172 -0.38C22.0186 -0.526667 21.792 -0.6 21.492 -0.6C21.312 -0.6 21.1553 -0.573334 21.022 -0.52C20.8953 -0.473334 20.7953 -0.4 20.722 -0.3H19.272L19.322 -4.3H23.632V-2.95H20.732L20.712 -1.05H21.022L20.702 -0.8C20.702 -1.10667 20.8186 -1.34667 21.052 -1.52C21.292 -1.7 21.6153 -1.79 22.022 -1.79C22.6153 -1.79 23.0753 -1.61 23.402 -1.25C23.7353 -0.896667 23.902 -0.4 23.902 0.24V0.95C23.902 1.61667 23.6886 2.14333 23.262 2.53C22.8353 2.91 22.2453 3.1 21.492 3.1ZM21.502 14.1C20.9953 14.1 20.5486 13.9967 20.162 13.79C19.782 13.5767 19.4853 13.28 19.272 12.9C19.0586 12.52 18.952 12.08 18.952 11.58C18.952 11.2467 19.0153 10.8833 19.142 10.49C19.2686 10.09 19.4353 9.72 19.642 9.38L21.282 6.7H22.952L20.732 10.16L20.802 10.2C20.9486 9.98667 21.1353 9.82333 21.362 9.71C21.5953 9.59667 21.8553 9.54 22.142 9.54C22.522 9.54 22.8553 9.63333 23.142 9.82C23.4286 10 23.652 10.2567 23.812 10.59C23.972 10.9167 24.052 11.3 24.052 11.74C24.052 12.2133 23.9453 12.6267 23.732 12.98C23.5186 13.3333 23.222 13.61 22.842 13.81C22.462 14.0033 22.0153 14.1 21.502 14.1ZM21.502 12.85C21.8286 12.85 22.092 12.75 22.292 12.55C22.492 12.35 22.592 12.0867 22.592 11.76C22.592 11.4267 22.492 11.16 22.292 10.96C22.092 10.7533 21.8286 10.65 21.502 10.65C21.1753 10.65 20.912 10.7533 20.712 10.96C20.512 11.16 20.412 11.4267 20.412 11.76C20.412 12.0867 20.512 12.35 20.712 12.55C20.912 12.75 21.1753 12.85 21.502 12.85ZM19.842 25L22.492 19.1H20.452V20.15H18.952V17.7H24.002V19.1L21.442 25H19.842ZM21.502 36.1C20.9953 36.1 20.5553 36.0167 20.182 35.85C19.8153 35.6767 19.5286 35.44 19.322 35.14C19.122 34.8333 19.022 34.48 19.022 34.08C19.022 33.6267 19.1486 33.2433 19.402 32.93C19.662 32.6167 20.0253 32.36 20.492 32.16L21.712 31.63C21.9186 31.5367 22.082 31.4067 22.202 31.24C22.322 31.0667 22.382 30.8733 22.382 30.66C22.382 30.42 22.302 30.2267 22.142 30.08C21.9886 29.9333 21.7753 29.86 21.502 29.86C21.2286 29.86 21.0086 29.9333 20.842 30.08C20.682 30.2267 20.602 30.42 20.602 30.66C20.602 30.8667 20.6653 31.0567 20.792 31.23C20.9186 31.3967 21.0853 31.5267 21.292 31.62L22.512 32.16C23.0253 32.3867 23.3986 32.66 23.632 32.98C23.8653 33.2933 23.982 33.66 23.982 34.08C23.982 34.7 23.7586 35.1933 23.312 35.56C22.8653 35.92 22.262 36.1 21.502 36.1ZM21.502 34.84C21.802 34.84 22.042 34.7567 22.222 34.59C22.4086 34.4233 22.502 34.2133 22.502 33.96C22.502 33.76 22.4353 33.5633 22.302 33.37C22.1686 33.1767 21.9953 33.0333 21.782 32.94L20.422 32.33C20.022 32.15 19.7053 31.9133 19.472 31.62C19.2386 31.32 19.122 30.9667 19.122 30.56C19.122 30.1933 19.2186 29.8633 19.412 29.57C19.6053 29.27 19.8786 29.0333 20.232 28.86C20.592 28.6867 21.0153 28.6 21.502 28.6C21.9886 28.6 22.4053 28.6867 22.752 28.86C23.1053 29.0333 23.3786 29.27 23.572 29.57C23.7653 29.8633 23.862 30.1933 23.862 30.56C23.862 30.9867 23.7486 31.3467 23.522 31.64C23.2953 31.9267 22.9853 32.1567 22.592 32.33L21.222 32.94C21.0086 33.0333 20.8353 33.1767 20.702 33.37C20.5686 33.5567 20.502 33.75 20.502 33.95C20.502 34.21 20.592 34.4233 20.772 34.59C20.9586 34.7567 21.202 34.84 21.502 34.84ZM20.052 47L22.272 43.54L22.202 43.5C22.0553 43.7133 21.8653 43.8767 21.632 43.99C21.4053 44.1033 21.1486 44.16 20.862 44.16C20.482 44.16 20.1486 44.07 19.862 43.89C19.5753 43.7033 19.352 43.4467 19.192 43.12C19.032 42.7867 18.952 42.4 18.952 41.96C18.952 41.4867 19.0586 41.0733 19.272 40.72C19.4853 40.3667 19.782 40.0933 20.162 39.9C20.5486 39.7 20.9953 39.6 21.502 39.6C22.0153 39.6 22.462 39.7067 22.842 39.92C23.222 40.1267 23.5186 40.42 23.732 40.8C23.9453 41.1733 24.052 41.6133 24.052 42.12C24.052 42.4467 23.9886 42.81 23.862 43.21C23.742 43.61 23.5753 43.98 23.362 44.32L21.722 47H20.052ZM21.502 43.05C21.8286 43.05 22.092 42.95 22.292 42.75C22.492 42.5433 22.592 42.2733 22.592 41.94C22.592 41.6133 22.492 41.35 22.292 41.15C22.092 40.95 21.8286 40.85 21.502 40.85C21.1753 40.85 20.912 40.95 20.712 41.15C20.512 41.35 20.412 41.6133 20.412 41.94C20.412 42.2733 20.512 42.5433 20.712 42.75C20.912 42.95 21.1753 43.05 21.502 43.05Z"/></clipPath><linearGradient id="paint0_diamond_3_2" x1="0" y1="0" x2="500" y2="500" gradientUnits="userSpaceOnUse">
<stop stop-color="white"/>
<stop offset="1" stop-color="#F9F8F5"/>
</linearGradient>
<linearGradient id="paint1_diamond_3_2" x1="0" y1="0" x2="500" y2="500" gradientUnits="userSpaceOnUse">
<stop stop-color="white"/>
<stop offset="1" stop-color="#F9F8F5"/>
</linearGradient>
<linearGradient id="paint2_diamond_3_2" x1="0" y1="0" x2="500" y2="500" gradientUnits="userSpaceOnUse">
<stop stop-color="white"/>
<stop offset="1" stop-color="#F9F8F5"/>
</linearGradient>
<clipPath id="clip0_3_2">
<rect width="32" height="32" fill="white"/>
</clipPath>
</defs>
</svg>
